<svg width="43" height="43" viewBox="0 0 43 43" fill="none" xmlns="http://www.w3.org/2000/svg">
<path fill-rule="evenodd" clip-rule="evenodd" d="M21.4999 7.16668C29.416 7.16668 35.8333 13.5839 35.8333 21.5C35.8333 29.4161 29.416 35.8333 21.4999 35.8333C13.5838 35.8333 7.16659 29.4161 7.16659 21.5C7.16659 13.5839 13.5838 7.16668 21.4999 7.16668ZM39.4166 21.5C39.4166 11.6049 31.3949 3.58334 21.4999 3.58334C11.6048 3.58334 3.58325 11.6049 3.58325 21.5C3.58325 31.395 11.6048 39.4167 21.4999 39.4167C31.3949 39.4167 39.4166 31.395 39.4166 21.5Z" fill="url(#paint0_linear_124_10)"/>
<path d="M23.2916 28.6667C23.2916 29.6562 22.4894 30.4583 21.4999 30.4583C20.5104 30.4583 19.7083 29.6562 19.7083 28.6667V21.5C19.7083 20.5105 20.5104 19.7083 21.4999 19.7083C22.4894 19.7083 23.2916 20.5105 23.2916 21.5V28.6667Z" fill="white"/>
<path d="M24.1875 15.2292C24.1875 16.7134 22.9843 17.9167 21.5 17.9167C20.0157 17.9167 18.8125 16.7134 18.8125 15.2292C18.8125 13.7449 20.0157 12.5417 21.5 12.5417C22.9843 12.5417 24.1875 13.7449 24.1875 15.2292Z" fill="white"/>
<defs>
<linearGradient id="paint0_linear_124_10" x1="10" y1="4" x2="35.5" y2="39" gradientUnits="userSpaceOnUse">
<stop stop-color="#00FFF0"/>
<stop offset="1" stop-color="#0075FF" stop-opacity="0"/>
</linearGradient>
</defs>
</svg>
